<svg width="25" height="25" viewBox="0 0 25 25" fill="none" xmlns="http://www.w3.org/2000/svg">
<path fill-rule="evenodd" clip-rule="evenodd" d="M4.34583 3.30433C3.125 4.52412 3.125 6.4887 3.125 10.4168V14.5835C3.125 18.5116 3.125 20.4762 4.34583 21.696C5.56667 22.9158 7.53021 22.9168 11.4583 22.9168H13.5417C17.4698 22.9168 19.4344 22.9168 20.6542 21.696C21.874 20.4752 21.875 18.5116 21.875 14.5835V10.4168C21.875 6.4887 21.875 4.52412 20.6542 3.30433C19.4333 2.08454 17.4698 2.0835 13.5417 2.0835H11.4583C7.53021 2.0835 5.56562 2.0835 4.34583 3.30433ZM8.33333 9.63558C8.12613 9.63558 7.92742 9.71789 7.78091 9.8644C7.63439 10.0109 7.55208 10.2096 7.55208 10.4168C7.55208 10.624 7.63439 10.8227 7.78091 10.9693C7.92742 11.1158 8.12613 11.1981 8.33333 11.1981H16.6667C16.8739 11.1981 17.0726 11.1158 17.2191 10.9693C17.3656 10.8227 17.4479 10.624 17.4479 10.4168C17.4479 10.2096 17.3656 10.0109 17.2191 9.8644C17.0726 9.71789 16.8739 9.63558 16.6667 9.63558H8.33333ZM8.33333 13.8022C8.12613 13.8022 7.92742 13.8846 7.78091 14.0311C7.63439 14.1776 7.55208 14.3763 7.55208 14.5835C7.55208 14.7907 7.63439 14.9894 7.78091 15.1359C7.92742 15.2824 8.12613 15.3647 8.33333 15.3647H13.5417C13.7489 15.3647 13.9476 15.2824 14.0941 15.1359C14.2406 14.9894 14.3229 14.7907 14.3229 14.5835C14.3229 14.3763 14.2406 14.1776 14.0941 14.0311C13.9476 13.8846 13.7489 13.8022 13.5417 13.8022H8.33333Z" fill="#ADB5BD"/>
</svg>
