<svg width="25" height="25" viewBox="0 0 25 25" fill="none" xmlns="http://www.w3.org/2000/svg">
<path d="M4.375 5C3.87772 5 3.40081 5.19754 3.04917 5.54917C2.69754 5.90081 2.5 6.37772 2.5 6.875V15.625C2.5 16.1223 2.69754 16.5992 3.04917 16.9508C3.40081 17.3025 3.87772 17.5 4.375 17.5H18.125C18.6223 17.5 19.0992 17.3025 19.4508 16.9508C19.8025 16.5992 20 16.1223 20 15.625V6.875C20 6.37772 19.8025 5.90081 19.4508 5.54917C19.0992 5.19754 18.6223 5 18.125 5H4.375ZM7.5 6.25V7.5C7.5 8.16304 7.23661 8.79893 6.76777 9.26777C6.29893 9.73661 5.66304 10 5 10H3.75V8.75H5C5.33152 8.75 5.64946 8.6183 5.88388 8.38388C6.1183 8.14946 6.25 7.83152 6.25 7.5V6.25H7.5ZM11.25 13.4375C10.6698 13.4375 10.1134 13.207 9.7032 12.7968C9.29297 12.3866 9.0625 11.8302 9.0625 11.25C9.0625 10.6698 9.29297 10.1134 9.7032 9.7032C10.1134 9.29297 10.6698 9.0625 11.25 9.0625C11.8302 9.0625 12.3866 9.29297 12.7968 9.7032C13.207 10.1134 13.4375 10.6698 13.4375 11.25C13.4375 11.8302 13.207 12.3866 12.7968 12.7968C12.3866 13.207 11.8302 13.4375 11.25 13.4375ZM3.75 13.75V12.5H5C5.66304 12.5 6.29893 12.7634 6.76777 13.2322C7.23661 13.7011 7.5 14.337 7.5 15V16.25H6.25V15C6.25 14.6685 6.1183 14.3505 5.88388 14.1161C5.64946 13.8817 5.33152 13.75 5 13.75H3.75ZM17.5 13.75C17.1685 13.75 16.8505 13.8817 16.6161 14.1161C16.3817 14.3505 16.25 14.6685 16.25 15V16.25H15V15C15 14.337 15.2634 13.7011 15.7322 13.2322C16.2011 12.7634 16.837 12.5 17.5 12.5H18.75V13.75H17.5ZM17.5 8.75H18.75V10H17.5C16.837 10 16.2011 9.73661 15.7322 9.26777C15.2634 8.79893 15 8.16304 15 7.5V6.25H16.25V7.5C16.25 7.83152 16.3817 8.14946 16.6161 8.38388C16.8505 8.6183 17.1685 8.75 17.5 8.75ZM21.25 15.625C21.25 16.4538 20.9208 17.2487 20.3347 17.8347C19.7487 18.4208 18.9538 18.75 18.125 18.75H5.10625C5.23555 19.1157 5.4751 19.4323 5.79189 19.6562C6.10867 19.8801 6.48709 20.0002 6.875 20H18.125C19.2853 20 20.3981 19.5391 21.2186 18.7186C22.0391 17.8981 22.5 16.7853 22.5 15.625V9.375C22.5002 8.98709 22.3801 8.60867 22.1562 8.29189C21.9323 7.9751 21.6157 7.73555 21.25 7.60625V15.625Z" fill="#ADB5BD"/>
</svg>
