<svg width="25" height="25" viewBox="0 0 25 25" fill="none" xmlns="http://www.w3.org/2000/svg">
<g clip-path="url(#clip0_586_1381)">
<path d="M7.6389 11.4585L6.94446 13.6113H8.33335L7.6389 11.4585Z" fill="#ADB5BD"/>
<path d="M21.0417 2.0835H9.93056V5.55572H12.7083V6.94461H3.68056C2.50001 6.94461 1.59723 7.84738 1.59723 9.02794V16.6668C1.59723 17.8474 2.50001 18.7502 3.68056 18.7502H4.37501V22.2918L8.75001 18.7502H13.4028V13.8891H21.0417C22.2222 13.8891 23.125 12.9863 23.125 11.8057V4.16683C23.125 2.98627 22.2222 2.0835 21.0417 2.0835ZM9.09723 15.9029L8.75001 14.7918H6.59723L6.18056 15.9029H4.5139L6.80556 9.72238H8.47223L10.7639 15.9029H9.09723ZM19.6528 10.4168V11.8057C18.75 11.8057 17.7778 11.5279 16.9445 11.1113C16.1111 11.5279 15.1389 11.7363 14.1667 11.8057L14.0972 10.4168C14.5833 10.4168 15.0695 10.3474 15.5556 10.2085C14.9306 9.5835 14.5139 8.81961 14.3056 7.98627H15.7639C15.9722 8.61127 16.3889 9.09738 16.875 9.51405C17.6389 8.88905 18.125 7.98627 18.1945 6.94461H14.0278V5.55572H16.1111V4.16683H17.5V5.55572H19.7917L19.8611 6.25016C19.9306 7.7085 19.375 9.16683 18.3333 10.2085C18.8195 10.3474 19.2361 10.4168 19.6528 10.4168Z" fill="#ADB5BD"/>
</g>
<defs>
<clipPath id="clip0_586_1381">
<rect width="25" height="25" fill="white"/>
</clipPath>
</defs>
</svg>
