<svg width="20" height="20" viewBox="0 0 20 20" fill="none" xmlns="http://www.w3.org/2000/svg">
<path d="M10 12C8.4087 12 6.88258 11.3679 5.75736 10.2426C4.63214 9.11742 4 7.5913 4 6C4 4.4087 4.63214 2.88258 5.75736 1.75736C6.88258 0.632141 8.4087 0 10 0C11.5913 0 13.1174 0.632141 14.2426 1.75736C15.3679 2.88258 16 4.4087 16 6C16 7.5913 15.3679 9.11742 14.2426 10.2426C13.1174 11.3679 11.5913 12 10 12ZM10 9C10.7956 9 11.5587 8.68393 12.1213 8.12132C12.6839 7.55871 13 6.79565 13 6C13 5.20435 12.6839 4.44129 12.1213 3.87868C11.5587 3.31607 10.7956 3 10 3C9.20435 3 8.44129 3.31607 7.87868 3.87868C7.31607 4.44129 7 5.20435 7 6C7 6.79565 7.31607 7.55871 7.87868 8.12132C8.44129 8.68393 9.20435 9 10 9ZM14 11.75V20L10 16L6 20V11.75C7.17213 12.5714 8.56871 13.012 10 13.012C11.4313 13.012 12.8279 12.5714 14 11.75Z" fill="#ADB5BD"/>
</svg>
