<svg width="25" height="25" viewBox="0 0 25 25" fill="none" xmlns="http://www.w3.org/2000/svg">
<g clip-path="url(#clip0_586_1377)">
<path fill-rule="evenodd" clip-rule="evenodd" d="M9.01606 0.493051C6.60001 1.19685 4.45216 2.61249 2.85275 4.5553C1.25333 6.49811 0.276601 8.87787 0.0499878 11.3841H5.76427C6.09737 7.57028 7.20314 3.86412 9.01427 0.491266L9.01606 0.493051ZM5.76427 13.6163H0.0499878C0.27613 16.1226 1.25244 18.5026 2.85154 20.4457C4.45065 22.3889 6.59829 23.8049 9.01427 24.5091C7.20314 21.1363 6.09737 17.4301 5.76427 13.6163ZM11.8786 24.9859C9.71352 21.5522 8.38614 17.6575 8.00356 13.6163H16.9946C16.612 17.6575 15.2847 21.5522 13.1196 24.9859C12.7062 25.0065 12.292 25.0065 11.8786 24.9859ZM15.9857 24.5073C18.4014 23.8032 20.5489 22.3875 22.148 20.4447C23.747 18.5019 24.7235 16.1223 24.95 13.6163H19.2357C18.9026 17.4301 17.7968 21.1363 15.9857 24.5091V24.5073ZM19.2357 11.3841H24.95C24.7238 8.87778 23.7475 6.49779 22.1484 4.55465C20.5493 2.61152 18.4017 1.19548 15.9857 0.491266C17.7968 3.86412 18.9026 7.57028 19.2357 11.3841ZM11.8786 0.0144799C12.2926 -0.00612873 12.7074 -0.00612873 13.1214 0.0144799C15.2858 3.44838 16.6126 7.34304 16.9946 11.3841H8.00534C8.39285 7.31805 9.7232 3.41984 11.8786 0.0144799Z" fill="#ADB5BD"/>
</g>
<defs>
<clipPath id="clip0_586_1377">
<rect width="25" height="25" fill="white"/>
</clipPath>
</defs>
</svg>
