<svg width="25" height="25" viewBox="0 0 25 25" fill="none" xmlns="http://www.w3.org/2000/svg">
<path d="M12.5 18.125C11.8715 18.1251 11.266 17.8885 10.8041 17.4623C10.3422 17.0361 10.0578 16.4515 10.0075 15.825C8.34023 15.2348 6.93506 14.0746 6.04003 12.5492C5.145 11.0238 4.81765 9.23116 5.11578 7.48783C5.41391 5.74451 6.31834 4.16256 7.66943 3.02123C9.02051 1.8799 10.7314 1.25258 12.5 1.25C14.3811 1.24973 16.1937 1.95636 17.5782 3.22978C18.9628 4.5032 19.8182 6.25043 19.975 8.125C19.9802 8.20631 19.9685 8.28782 19.9405 8.36435C19.9125 8.44087 19.8689 8.51075 19.8125 8.56952C19.7561 8.6283 19.6881 8.6747 19.6127 8.70577C19.5374 8.73684 19.4565 8.7519 19.375 8.75C19.2076 8.7458 19.0477 8.67951 18.9264 8.564C18.8051 8.4485 18.7311 8.29203 18.7188 8.125C18.6074 7.01979 18.2036 5.96423 17.5487 5.06697C16.8939 4.1697 16.0118 3.46317 14.9932 3.02011C13.9746 2.57704 12.8563 2.41345 11.7534 2.54618C10.6506 2.67891 9.60304 3.10316 8.71863 3.77525C7.83423 4.44734 7.14493 5.34299 6.72169 6.37C6.29845 7.39701 6.15656 8.51826 6.31064 9.61832C6.46471 10.7184 6.90918 11.7575 7.59829 12.6287C8.28739 13.4999 9.19624 14.1717 10.2313 14.575C10.4196 14.1681 10.7139 13.8193 11.0833 13.5652C11.4528 13.3111 11.8838 13.161 12.3312 13.1307C12.7785 13.1004 13.2258 13.191 13.6262 13.393C14.0265 13.595 14.3651 13.9009 14.6066 14.2787C14.8481 14.6566 14.9835 15.0924 14.9986 15.5405C15.0138 15.9887 14.9081 16.4327 14.6927 16.8259C14.4773 17.2192 14.1601 17.5473 13.7743 17.7759C13.3886 18.0044 12.9484 18.125 12.5 18.125ZM6.26125 15H6.375C7.11295 15.7239 7.97333 16.3113 8.91625 16.735C9.19336 17.6493 9.80899 18.4234 10.6375 18.8992C11.4659 19.375 12.4448 19.5166 13.3741 19.2952C14.3035 19.0738 15.1133 18.506 15.6382 17.7078C16.1632 16.9095 16.3637 15.941 16.1987 15H18.75C19.413 15 20.0489 15.2634 20.5178 15.7322C20.9866 16.2011 21.25 16.837 21.25 17.5C21.25 19.6138 20.2087 21.2075 18.5812 22.2463C16.9788 23.2675 14.8188 23.75 12.5 23.75C10.1813 23.75 8.02125 23.2675 6.41875 22.2463C4.79125 21.2088 3.75 19.6125 3.75 17.5C3.75 16.1088 4.87875 15 6.26125 15ZM17.5 8.75C17.5003 9.5958 17.286 10.4278 16.8772 11.1683C16.4684 11.9087 15.8784 12.5334 15.1625 12.9838C14.8138 12.6324 14.3991 12.3535 13.9421 12.1632C13.4851 11.9729 12.995 11.8749 12.5 11.875C12.005 11.8749 11.5149 11.9729 11.0579 12.1632C10.6009 12.3535 10.1862 12.6324 9.8375 12.9838C8.88803 12.3867 8.16689 11.4877 7.79 10.4313C7.59773 9.89159 7.49964 9.32289 7.5 8.75C7.5 7.42392 8.02678 6.15215 8.96447 5.21447C9.90215 4.27678 11.1739 3.75 12.5 3.75C13.8261 3.75 15.0979 4.27678 16.0355 5.21447C16.9732 6.15215 17.5 7.42392 17.5 8.75Z" fill="#ADB5BD"/>
</svg>
