<svg width="18" height="18" viewBox="0 0 18 18" fill="none" xmlns="http://www.w3.org/2000/svg">
<path d="M9 2.25244C8.70482 2.25244 8.41253 2.31058 8.13982 2.42354C7.86711 2.5365 7.61932 2.70207 7.4106 2.91079C7.20188 3.11951 7.03631 3.36731 6.92335 3.64001C6.81039 3.91272 6.75225 4.20501 6.75225 4.50019C6.75225 4.79537 6.81039 5.08766 6.92335 5.36037C7.03631 5.63308 7.20188 5.88087 7.4106 6.08959C7.61932 6.29831 7.86711 6.46388 8.13982 6.57684C8.41253 6.6898 8.70482 6.74794 9 6.74794C9.59614 6.74794 10.1679 6.51113 10.5894 6.08959C11.0109 5.66806 11.2478 5.09633 11.2478 4.50019C11.2478 3.90405 11.0109 3.33233 10.5894 2.91079C10.1679 2.48926 9.59614 2.25244 9 2.25244ZM14.0625 3.37519C13.6149 3.37519 13.1857 3.55298 12.8693 3.86945C12.5528 4.18592 12.375 4.61514 12.375 5.06269C12.375 5.51024 12.5528 5.93947 12.8693 6.25593C13.1857 6.5724 13.6149 6.75019 14.0625 6.75019C14.5101 6.75019 14.9393 6.5724 15.2557 6.25593C15.5722 5.93947 15.75 5.51024 15.75 5.06269C15.75 4.61514 15.5722 4.18592 15.2557 3.86945C14.9393 3.55298 14.5101 3.37519 14.0625 3.37519ZM3.9375 3.37519C3.48995 3.37519 3.06073 3.55298 2.74426 3.86945C2.42779 4.18592 2.25 4.61514 2.25 5.06269C2.25 5.51024 2.42779 5.93947 2.74426 6.25593C3.06073 6.5724 3.48995 6.75019 3.9375 6.75019C4.38505 6.75019 4.81428 6.5724 5.13074 6.25593C5.44721 5.93947 5.625 5.51024 5.625 5.06269C5.625 4.61514 5.44721 4.18592 5.13074 3.86945C4.81428 3.55298 4.38505 3.37519 3.9375 3.37519ZM5.625 8.99232C5.62708 8.69531 5.74652 8.41119 5.95728 8.20191C6.16803 7.99263 6.45299 7.87518 6.75 7.87519H11.25C11.5484 7.87519 11.8345 7.99372 12.0455 8.2047C12.2565 8.41568 12.375 8.70182 12.375 9.00019V12.3752C12.3753 12.7293 12.3199 13.0812 12.2108 13.4181C11.9616 14.1816 11.4485 14.8313 10.7635 15.2506C10.0784 15.6698 9.26635 15.8311 8.47308 15.7055C7.67982 15.5799 6.95732 15.1756 6.43532 14.5652C5.91332 13.9548 5.62602 13.1783 5.625 12.3752V8.99232ZM4.5 9.00019C4.5 8.58957 4.60913 8.20594 4.8015 7.87519H2.25C1.95163 7.87519 1.66548 7.99372 1.4545 8.2047C1.24353 8.41568 1.125 8.70182 1.125 9.00019V11.8127C1.12485 12.2732 1.23775 12.7266 1.45381 13.1333C1.66986 13.5399 1.98245 13.8873 2.36412 14.1449C2.7458 14.4025 3.18488 14.5624 3.64281 14.6106C4.10075 14.6589 4.56352 14.594 4.9905 14.4216C4.66739 13.7875 4.49929 13.0858 4.5 12.3741V9.00019ZM13.5 9.00019V12.3752C13.5 13.1121 13.3234 13.8073 13.0095 14.4216C13.4365 14.594 13.8993 14.6589 14.3572 14.6106C14.8151 14.5624 15.2542 14.4025 15.6359 14.1449C16.0176 13.8873 16.3301 13.5399 16.5462 13.1333C16.7622 12.7266 16.8752 12.2732 16.875 11.8127V9.00019C16.875 8.70182 16.7565 8.41568 16.5455 8.2047C16.3345 7.99372 16.0484 7.87519 15.75 7.87519H13.1985C13.3898 8.20594 13.5 8.58957 13.5 9.00019Z" fill="#ADB5BD"/>
</svg>
