<svg width="25" height="25" viewBox="0 0 25 25" fill="none" xmlns="http://www.w3.org/2000/svg">
<path fill-rule="evenodd" clip-rule="evenodd" d="M14.8437 2.60417C14.8437 2.5351 14.8163 2.46886 14.7675 2.42002C14.7186 2.37119 14.6524 2.34375 14.5833 2.34375H7.29165C6.53191 2.34375 5.80329 2.64555 5.26608 3.18277C4.72887 3.71998 4.42706 4.4486 4.42706 5.20833V19.7917C4.42706 20.5514 4.72887 21.28 5.26608 21.8172C5.80329 22.3544 6.53191 22.6562 7.29165 22.6562H17.7083C18.468 22.6562 19.1967 22.3544 19.7339 21.8172C20.2711 21.28 20.5729 20.5514 20.5729 19.7917V9.52813C20.5729 9.45906 20.5455 9.39282 20.4966 9.34398C20.4478 9.29515 20.3815 9.26771 20.3125 9.26771H15.625C15.4178 9.26771 15.2191 9.1854 15.0726 9.03889C14.926 8.89237 14.8437 8.69366 14.8437 8.48646V2.60417ZM15.625 12.7604C15.8322 12.7604 16.0309 12.8427 16.1774 12.9892C16.3239 13.1358 16.4062 13.3345 16.4062 13.5417C16.4062 13.7489 16.3239 13.9476 16.1774 14.0941C16.0309 14.2406 15.8322 14.3229 15.625 14.3229H9.37498C9.16778 14.3229 8.96907 14.2406 8.82255 14.0941C8.67604 13.9476 8.59373 13.7489 8.59373 13.5417C8.59373 13.3345 8.67604 13.1358 8.82255 12.9892C8.96907 12.8427 9.16778 12.7604 9.37498 12.7604H15.625ZM15.625 16.9271C15.8322 16.9271 16.0309 17.0094 16.1774 17.1559C16.3239 17.3024 16.4062 17.5011 16.4062 17.7083C16.4062 17.9155 16.3239 18.1142 16.1774 18.2608C16.0309 18.4073 15.8322 18.4896 15.625 18.4896H9.37498C9.16778 18.4896 8.96907 18.4073 8.82255 18.2608C8.67604 18.1142 8.59373 17.9155 8.59373 17.7083C8.59373 17.5011 8.67604 17.3024 8.82255 17.1559C8.96907 17.0094 9.16778 16.9271 9.37498 16.9271H15.625Z" fill="#ADB5BD"/>
<path d="M16.4062 2.94152C16.4062 2.74985 16.6073 2.62798 16.7563 2.74777C16.8826 2.84985 16.9948 2.9686 17.0927 3.10402L20.2313 7.47589C20.3021 7.5759 20.225 7.70506 20.1021 7.70506H16.6667C16.5976 7.70506 16.5314 7.67763 16.4825 7.62879C16.4337 7.57995 16.4062 7.51371 16.4062 7.44464V2.94152Z" fill="#ADB5BD"/>
</svg>
