<svg width="24" height="24" viewBox="0 0 24 24" fill="none" xmlns="http://www.w3.org/2000/svg">
<path d="M15.5 13.5C15.5 15.5 13 17 13 18.5H11C11 17 8.5 15.5 8.5 13.5C8.5 11.57 10.07 10 12 10C13.93 10 15.5 11.57 15.5 13.5ZM13 19.5H11V21H13V19.5ZM19 13C19 14.68 18.41 16.21 17.42 17.42L18.84 18.84C19.6087 17.9426 20.1926 16.9022 20.5585 15.7787C20.9243 14.6551 21.0648 13.4704 20.9719 12.2924C20.879 11.1145 20.5545 9.96643 20.0171 8.9141C19.4797 7.86177 18.7398 6.92586 17.84 6.16L16.42 7.58C17.2251 8.23556 17.8742 9.06199 18.3205 9.99941C18.7667 10.9368 18.9988 11.9618 19 13ZM16 5L12 1V4C9.61305 4 7.32387 4.94821 5.63604 6.63604C3.94821 8.32387 3 10.6131 3 13C3 15.23 3.82 17.27 5.16 18.84L6.58 17.42C5.55595 16.1749 4.99731 14.6121 5 13C5 9.14 8.14 6 12 6V9L16 5Z" fill="#ADB5BD"/>
</svg>
